<svg width="48" height="48" viewBox="0 0 48 48" fill="none" xmlns="http://www.w3.org/2000/svg">
<path d="M24.26 4.04999C24.5693 4.05009 24.8676 4.16486 25.0972 4.3721C25.3268 4.57933 25.4714 4.86433 25.503 5.17199L25.509 5.29999L25.508 13.075L30.629 8.57599C30.752 8.46573 30.8957 8.38094 31.0517 8.32653C31.2077 8.27213 31.3729 8.24918 31.5378 8.25901C31.7027 8.26885 31.864 8.31127 32.0124 8.38383C32.1608 8.4564 32.2934 8.55765 32.4024 8.68176C32.5114 8.80586 32.5948 8.95034 32.6476 9.10685C32.7005 9.26337 32.7218 9.4288 32.7103 9.5936C32.6989 9.7584 32.6548 9.91929 32.5808 10.067C32.5068 10.2146 32.4042 10.3462 32.279 10.454L25.509 16.403L25.506 23H32.111L38.061 16.232C38.2643 16.0007 38.5459 15.8525 38.8517 15.816C39.1574 15.7794 39.466 15.8571 39.718 16.034L39.825 16.118C40.0564 16.3213 40.2045 16.6028 40.241 16.9086C40.2776 17.2144 40.1999 17.5229 40.023 17.775L39.939 17.883L35.439 22.999H43.212C43.86 22.999 44.392 23.492 44.456 24.122L44.462 24.25C44.4619 24.5593 44.3472 24.8575 44.1399 25.0871C43.9327 25.3167 43.6477 25.4613 43.34 25.493L43.213 25.5H35.435L39.935 30.622C40.1383 30.8534 40.249 31.1517 40.2459 31.4597C40.2428 31.7678 40.126 32.0638 39.918 32.291L39.821 32.386C39.5897 32.5897 39.2912 32.7008 38.983 32.6978C38.6747 32.6949 38.3784 32.5781 38.151 32.37L38.056 32.272L32.106 25.501L25.505 25.5L25.504 32.1L32.279 38.053C32.5104 38.2563 32.6585 38.5378 32.695 38.8436C32.7316 39.1494 32.6539 39.4579 32.477 39.71L32.393 39.817C32.1899 40.0485 31.9084 40.1968 31.6026 40.2335C31.2968 40.2702 30.9882 40.1928 30.736 40.016L30.629 39.931L25.504 35.428L25.502 43.206C25.5019 43.5153 25.3872 43.8135 25.1799 44.0431C24.9727 44.2727 24.6877 44.4173 24.38 44.449L24.252 44.456C23.9426 44.4559 23.6442 44.341 23.4146 44.1335C23.185 43.9261 23.0405 43.6408 23.009 43.333L23.002 43.205V35.434L17.89 39.931C17.641 40.1499 17.3152 40.261 16.9843 40.2397C16.6534 40.2184 16.3445 40.0665 16.1255 39.8175C15.9066 39.5685 15.7956 39.2426 15.8168 38.9117C15.8381 38.5808 15.99 38.2719 16.239 38.053L23.004 32.105V25.501H16.862C16.8371 25.5364 16.8104 25.5704 16.782 25.603L10.46 32.798C10.2402 33.0433 9.93243 33.1918 9.60364 33.2114C9.27486 33.2311 8.95162 33.1201 8.70418 32.9027C8.45674 32.6853 8.30511 32.379 8.28224 32.0505C8.25937 31.7219 8.3671 31.3976 8.58203 31.148L13.542 25.501L5.30603 25.502C4.99657 25.5021 4.69806 25.3875 4.46826 25.1802C4.23847 24.973 4.09372 24.6878 4.06203 24.38L4.05603 24.252C4.05603 23.605 4.54703 23.072 5.17803 23.009L5.30603 23.002H12.614L8.58203 18.407C8.47278 18.2838 8.38896 18.1402 8.33539 17.9844C8.28181 17.8287 8.25953 17.6639 8.26983 17.4996C8.28013 17.3352 8.32281 17.1745 8.39541 17.0267C8.46801 16.8789 8.5691 16.7469 8.69287 16.6383C8.81665 16.5296 8.96067 16.4465 9.11666 16.3937C9.27265 16.3409 9.43753 16.3195 9.60184 16.3306C9.76614 16.3417 9.92663 16.3852 10.0741 16.4586C10.2215 16.5319 10.353 16.6337 10.461 16.758L15.94 23.001H23.006V16.4L16.239 10.45C16.0077 10.2467 15.8596 9.96515 15.823 9.65937C15.7865 9.35358 15.8641 9.04507 16.041 8.79299L16.125 8.68499C16.3285 8.45382 16.6101 8.30587 16.9158 8.26952C17.2216 8.23316 17.5301 8.31096 17.782 8.48799L17.89 8.57199L23.008 13.072L23.009 5.29999C23.009 4.69599 23.438 4.19199 24.007 4.07499L24.131 4.05599L24.259 4.04999H24.26Z" fill="black"/>
</svg>
