<svg width="48" height="48" viewBox="0 0 48 48" fill="none" xmlns="http://www.w3.org/2000/svg">
<path d="M24 36V33C25.1598 32.8998 26.2471 32.3935 27.0703 31.5703C27.8935 30.7471 28.3998 29.6598 28.5 28.5H31.5C31.403 30.4578 30.5817 32.3096 29.1957 33.6957C27.8096 35.0817 25.9578 35.903 24 36V36Z" fill="black"/>
<path d="M24 42C20.4209 41.9956 16.9897 40.5719 14.4589 38.0411C11.9281 35.5103 10.5044 32.0791 10.5 28.5C10.5807 25.8686 11.3537 23.305 12.741 21.0675L22.7295 5.15551C22.8738 4.95302 23.0643 4.78795 23.2853 4.67405C23.5064 4.56016 23.7514 4.50073 24 4.50073C24.2486 4.50073 24.4937 4.56016 24.7147 4.67405C24.9357 4.78795 25.1262 4.95302 25.2705 5.15551L35.2155 20.9895C36.6261 23.2477 37.4142 25.8388 37.5 28.5C37.4956 32.0791 36.0719 35.5103 33.5411 38.0411C31.0103 40.5719 27.5791 41.9956 24 42V42ZM24 8.77201L15.327 22.584C14.2095 24.3616 13.5794 26.4019 13.5 28.5C13.5 31.2848 14.6062 33.9555 16.5754 35.9246C18.5445 37.8938 21.2152 39 24 39C26.7848 39 29.4555 37.8938 31.4246 35.9246C33.3938 33.9555 34.5 31.2848 34.5 28.5C34.4144 26.3725 33.7687 24.3054 32.628 22.5075L24 8.77201Z" fill="black"/>
</svg>
