<svg width="48" height="48" viewBox="0 0 48 48" fill="none" xmlns="http://www.w3.org/2000/svg">
<path d="M26.003 14.018C32.34 14.018 35.935 18.212 36.458 23.278H36.618C40.696 23.278 44.002 26.576 44.002 30.643C44.002 34.711 40.696 38.008 36.618 38.008H15.388C11.31 38.008 8.00398 34.711 8.00398 30.643C8.00398 26.657 11.18 23.41 15.144 23.282L15.549 23.278C16.075 18.179 19.666 14.018 26.003 14.018ZM26.003 16.513C21.743 16.513 18.028 19.961 18.028 24.723C18.028 25.478 17.372 26.07 16.621 26.07H15.2C12.605 26.07 10.502 28.184 10.502 30.792C10.502 33.399 12.605 35.513 15.199 35.513H36.805C39.4 35.513 41.502 33.399 41.502 30.792C41.502 28.184 39.4 26.07 36.805 26.07H35.385C34.633 26.07 33.977 25.478 33.977 24.724C33.977 19.9 30.263 16.513 26.002 16.513H26.003ZM20 8C21.5338 7.99926 23.0447 8.37265 24.4016 9.0878C25.7586 9.80295 26.9206 10.8383 27.787 12.104C26.6456 11.9691 25.4926 11.9634 24.35 12.087C23.1424 11.0401 21.5982 10.4633 20 10.462C16.716 10.462 13.917 12.885 13.357 16.158L13.043 17.988C13.0033 18.2208 12.8826 18.432 12.7021 18.5843C12.5216 18.7365 12.2931 18.8201 12.057 18.82H10.11C8.04698 18.82 6.37498 20.53 6.37498 22.641C6.37498 23.747 6.83498 24.743 7.56798 25.441C7.13312 26.0915 6.78233 26.7944 6.52398 27.533C5.44696 26.6918 4.65936 25.5353 4.27107 24.225C3.88277 22.9147 3.91314 21.5158 4.35794 20.2236C4.80274 18.9314 5.63978 17.8102 6.75231 17.0165C7.86483 16.2228 9.19735 15.7961 10.564 15.796H10.706C11.0923 13.6117 12.2355 11.6331 13.935 10.2075C15.6345 8.78197 17.7817 8.00041 20 8Z" fill="black"/>
</svg>
