<svg width="48" height="48" viewBox="0 0 48 48" fill="none" xmlns="http://www.w3.org/2000/svg">
<path d="M15.247 38H32.753C33.0784 37.9911 33.3945 38.1098 33.6336 38.3307C33.8727 38.5517 34.0159 38.8574 34.0326 39.1825C34.0493 39.5076 33.9382 39.8264 33.723 40.0707C33.5078 40.3151 33.2056 40.4655 32.881 40.49L32.753 40.496H15.247C14.9216 40.5049 14.6055 40.3862 14.3664 40.1653C14.1273 39.9443 13.9841 39.6386 13.9674 39.3135C13.9507 38.9884 14.0618 38.6696 14.277 38.4253C14.4922 38.181 14.7944 38.0305 15.119 38.006L15.247 38ZM9.247 33H38.752C39.0729 32.9985 39.3821 33.1206 39.6153 33.3411C39.8485 33.5616 39.9878 33.8634 40.0043 34.1839C40.0207 34.5044 39.9131 34.8189 39.7038 35.0622C39.4944 35.3054 39.1994 35.4586 38.88 35.49L38.752 35.496H9.248C8.92708 35.4975 8.61791 35.3754 8.38471 35.1549C8.15151 34.9344 8.01221 34.6326 7.99573 34.3121C7.97926 33.9916 8.08688 33.6771 8.29624 33.4338C8.50561 33.1906 8.80062 33.0374 9.12 33.006L9.248 33H9.247ZM24 7C30.337 7 33.932 11.195 34.455 16.26H34.615C38.693 16.26 41.999 19.558 41.999 23.625C41.999 27.693 38.693 30.99 34.615 30.99H13.385C9.306 30.99 6 27.693 6 23.625C6 19.558 9.306 16.26 13.384 16.26H13.544C14.07 11.161 17.662 7 24 7ZM24 9.495C19.739 9.495 16.025 12.943 16.025 17.705C16.025 18.46 15.369 19.053 14.617 19.053H13.197C10.603 19.053 8.5 21.166 8.5 23.773C8.5 26.381 10.603 28.495 13.197 28.495H34.803C37.397 28.495 39.5 26.381 39.5 23.774C39.5 21.166 37.397 19.052 34.803 19.052H33.383C32.631 19.052 31.975 18.46 31.975 17.706C31.975 12.882 28.261 9.496 24 9.496V9.495Z" fill="black"/>
</svg>
