<svg width="48" height="48" viewBox="0 0 48 48" fill="none" xmlns="http://www.w3.org/2000/svg">
<path d="M21.282 31.95L25.799 26.461C26.0021 26.2141 26.2922 26.0544 26.6095 26.0148C26.9268 25.9752 27.2472 26.0588 27.5048 26.2482C27.7624 26.4377 27.9376 26.7186 27.9944 27.0333C28.0512 27.348 27.9852 27.6725 27.81 27.94L27.73 28.05L24.895 31.494H29.753C30.763 31.494 31.339 32.618 30.797 33.431L30.724 33.531L24.238 41.536C24.0363 41.7831 23.7478 41.9437 23.4316 41.9851C23.1153 42.0264 22.7952 41.9453 22.5368 41.7583C22.2785 41.5714 22.1013 41.2927 22.0417 40.9794C21.982 40.6661 22.0444 40.3418 22.216 40.073L22.296 39.963L27.131 33.994H22.247C21.233 33.994 20.657 32.862 21.207 32.05L21.282 31.95L25.799 26.461L21.282 31.95ZM26 10.018C32.337 10.018 35.932 14.212 36.455 19.278H36.615C40.693 19.278 43.999 22.576 43.999 26.643C43.999 30.711 40.693 34.008 36.615 34.008L32.492 34.009C32.8219 33.5752 33.0004 33.045 33 32.5C33 32.15 32.928 31.816 32.797 31.513H36.804C39.398 31.513 41.501 29.399 41.501 26.792C41.501 24.184 39.398 22.07 36.804 22.07H35.384C34.632 22.07 33.976 21.478 33.976 20.724C33.976 15.9 30.262 12.513 26.001 12.513C21.74 12.513 18.026 15.961 18.026 20.723C18.026 21.478 17.37 22.07 16.619 22.07H15.198C12.604 22.07 10.501 24.184 10.501 26.792C10.501 29.399 12.604 31.513 15.198 31.513H19.202C19.0274 31.9189 18.9635 32.3639 19.0169 32.8025C19.0703 33.2412 19.2391 33.6578 19.506 34.01L15.386 34.008C11.308 34.008 8.00197 30.711 8.00197 26.643C8.00197 22.657 11.177 19.41 15.142 19.282L15.546 19.278C16.072 14.179 19.664 10.018 26.001 10.018H26ZM19.998 4C21.5318 3.99935 23.0427 4.37278 24.3996 5.08792C25.7565 5.80306 26.9185 6.83833 27.785 8.104C26.6436 7.96918 25.4906 7.96347 24.348 8.087C23.1404 7.04015 21.5961 6.46327 19.998 6.462C16.713 6.462 13.915 8.884 13.354 12.158L13.041 13.988C13.0011 14.2206 12.8802 14.4316 12.6998 14.5837C12.5194 14.7357 12.291 14.8191 12.055 14.819H10.108C8.04497 14.819 6.37297 16.529 6.37297 18.64C6.37297 19.746 6.83197 20.742 7.56597 21.44C7.13109 22.0905 6.7803 22.7934 6.52197 23.532C5.44494 22.6907 4.65735 21.5343 4.26906 20.224C3.88076 18.9137 3.91113 17.5148 4.35593 16.2226C4.80073 14.9304 5.63777 13.8092 6.75029 13.0155C7.86281 12.2218 9.19534 11.7951 10.562 11.795H10.704C11.0905 9.61084 12.2338 7.63254 13.9333 6.20717C15.6327 4.78179 17.7799 4.00037 19.998 4Z" fill="black"/>
</svg>
