<svg width="48" height="48" viewBox="0 0 48 48" fill="none" xmlns="http://www.w3.org/2000/svg">
<path d="M38.05 19.55C39.6356 19.5497 41.1565 20.1792 42.2781 21.3001C43.3997 22.4209 44.0302 23.9414 44.031 25.527C44.031 28.827 41.326 31.519 38.021 31.519C37.979 31.519 37.937 31.517 37.896 31.512L37.771 31.519H34.738C35.298 32.376 35.624 33.399 35.624 34.499C35.624 37.56 33.325 40.006 30.288 40.006C27.27 40.006 25.467 38.26 24.978 35.817C24.9398 35.6539 24.9348 35.4848 24.9633 35.3197C24.9918 35.1546 25.0532 34.9969 25.1438 34.856C25.2344 34.7151 25.3525 34.5939 25.4909 34.4995C25.6293 34.4051 25.7852 34.3395 25.9495 34.3066C26.1138 34.2737 26.283 34.2741 26.447 34.3079C26.6111 34.3416 26.7668 34.408 26.9047 34.5031C27.0426 34.5982 27.16 34.7201 27.2499 34.8614C27.3398 35.0028 27.4004 35.1608 27.428 35.326C27.698 36.676 28.557 37.506 30.288 37.506C31.908 37.506 33.124 36.213 33.124 34.498C33.124 32.943 31.916 31.659 30.366 31.518H5.281C4.96127 31.517 4.6541 31.3935 4.42265 31.1729C4.1912 30.9523 4.05308 30.6514 4.03668 30.3321C4.02029 30.0128 4.12687 29.6993 4.33451 29.4562C4.54215 29.2131 4.83506 29.0588 5.153 29.025L5.281 29.019L29.907 29.017C29.9646 29.0089 30.0228 29.0049 30.081 29.005C30.21 29.005 30.337 29.009 30.464 29.017L37.771 29.019L37.895 29.025L38.022 29.019C39.884 29.019 41.425 27.547 41.526 25.718L41.531 25.528C41.5305 24.6052 41.1635 23.7204 40.5107 23.0682C39.8579 22.416 38.9728 22.0497 38.05 22.05C37.1641 22.0496 36.3115 22.387 35.6658 22.9935C35.0201 23.6 34.63 24.4298 34.575 25.314C34.5551 25.645 34.4045 25.9545 34.1564 26.1745C33.9083 26.3945 33.583 26.5069 33.252 26.487C32.921 26.4671 32.6115 26.3165 32.3915 26.0684C32.1715 25.8203 32.0591 25.495 32.079 25.164C32.1722 23.644 32.8418 22.2168 33.9512 21.1736C35.0606 20.1304 36.5261 19.5497 38.049 19.55H38.05ZM23.022 24.033H5.28C4.95857 24.0345 4.64892 23.9121 4.41536 23.6913C4.18181 23.4704 4.0423 23.1681 4.02583 22.8471C4.00935 22.5261 4.11717 22.2111 4.32689 21.9675C4.53661 21.7239 4.8321 21.5704 5.152 21.539L5.28 21.533H23.02C24.106 21.533 25.1676 21.211 26.0705 20.6077C26.9735 20.0044 27.6773 19.1468 28.0929 18.1435C28.5086 17.1403 28.6174 16.0362 28.4056 14.9711C28.1938 13.906 27.6709 12.9276 26.9031 12.1596C26.1352 11.3917 25.1569 10.8686 24.0919 10.6566C23.0268 10.4446 21.9227 10.5532 20.9194 10.9687C19.916 11.3841 19.0584 12.0878 18.4549 12.9906C17.8514 13.8935 17.5292 14.955 17.529 16.041C17.529 16.3725 17.3973 16.6905 17.1629 16.9249C16.9285 17.1593 16.6105 17.291 16.279 17.291C15.9475 17.291 15.6295 17.1593 15.3951 16.9249C15.1607 16.6905 15.029 16.3725 15.029 16.041C15.029 14.4603 15.4977 12.9152 16.3759 11.6009C17.2541 10.2866 18.5022 9.26225 19.9626 8.65735C21.4229 8.05246 23.0299 7.89419 24.5802 8.20256C26.1305 8.51094 27.5545 9.2721 28.6722 10.3898C29.7899 11.5075 30.5511 12.9315 30.8594 14.4818C31.1678 16.0321 31.0095 17.6391 30.4046 19.0994C29.7997 20.5598 28.7754 21.8079 27.4611 22.6861C26.1468 23.5643 24.6017 24.033 23.021 24.033H5.28H23.02H23.022Z" fill="black"/>
</svg>
